<mxfile host="app.diagrams.net" modified="2023-12-04T14:38:21.032Z" agent="Mozilla/5.0 (Windows NT 10.0; Win64; x64) AppleWebKit/537.36 (KHTML, like Gecko) Chrome/119.0.0.0 Safari/537.36" etag="5iLDkv55_sK8pjxbHlBc" version="22.1.5" type="github">
  <diagram name="Page-1" id="q1TZZe79sUNC-gniPR1K">
    <mxGraphModel dx="1674" dy="782" grid="1" gridSize="10" guides="1" tooltips="1" connect="1" arrows="1" fold="1" page="1" pageScale="1" pageWidth="827" pageHeight="1169" math="0" shadow="0">
      <root>
        <mxCell id="0" />
        <mxCell id="1" parent="0" />
        <mxCell id="N3M5FBiTOwVPSsPxJG5p-1" value="" style="shape=image;verticalLabelPosition=bottom;labelBackgroundColor=default;verticalAlign=top;aspect=fixed;imageAspect=0;image=data:image/png,iVBORw0KGgoAAAANSUhEUgAAASIAAACuCAMAAAClZfCTAAAAllBMVEX///8Aljn8/Pz09PT5+fkAlTUpolIAki4AkCfz8/O33cOHxJjw8PAAjRz7/fvG5dAAkSoAkzKh0a/l8+rx+fTX7N6SyqKv2LvR6dlHqmVhtHobnEZxu4dXsHG/v7/MzMw5pVrg8eZ6v4+w2b0QmkHa2tq0tLSPyaBruIHN39Pi6eWAwpMzpFfs8u7I4s4AhwBNrGm6urriuxG7AAAL9ElEQVR4nO2d6XrqNhCGvcaCYDBgspGFJOSQ9qSn6f3fXLGNbS0zGq8YiL4f7XmwIo1ea7E8Y8myjIyMjIyMjIyMjIxOUI7jEAk8T5/CcV0iAZUDbcSQSkzT2ecktfM8TQ7u/qLnahIkf+3oIKXlnyqjHA4KKYeDQsrhuBikPAGaA2nDkOKMgu3jquWAnckrf3VciAH/ZzAkjzJiSIkGqfZJncNTIElUyARAb3MoI4aUaoxYAaA+UjNQm400JKkjlJSDo7ar02EEWsJTAXsF3yrgEVpIAHZNru+CQzjfkIbg5Uj/V6574v8V5fX2RkgWzij7U3hoSv80nwFQIygr+5VDFU3O0EnrwetvHSjqEtDPEaSV/Yoqef+cp7M+5aN7CrISPlgbO8ijnyX1l4eWntBek9YJKEKnLhLRiEpgEB0B0YkjPIWOZhCdOCKy9CMgIt6enDwiYkpXCcRxPNUmUIv4WYiWnzZj27clmgAq4kchug4De6+A3SAJwCJ+EKLbeWQfFNljIAFSxI9BdLdhdimf3a+kBGgRPwRR/Ml8W9CcPcZcAk0RPwPRTRTYioL5wjKIMgJjO1IBJWLrmUG0J7C6l/sYPyQ9/UUWcdKI6DfoJKK/39gcA5QOSdHvqT6HS0e08IFBSFRk3+qLuGhEszWjAKVD0tWdrojzRuToBtvXpxAdhKQhKXxYotlMSCMGZORQEQae66JvnqfXkXYQEhUEO3hIckbuiHg/PlwcRFaw5m1N5ttAHPS32ESPKdqOgWzS3HUegMxFNQykIsIAgVQ4fxzgLt99VRqEBPlhviYp5OadDPOjFMYNwEjwc0INnTfam4gp4gf8SUinOfuMLSRb0NnG370jQ5KLU7xlsoOZH5KmNwE50WPK1iSZDROx5aguS9mqY0ICihJ6G+BgLSs0rjbRY2JXszSbkTqRifcFGgCOxQi+GZxFsIPZSbvF6r7qRI/JD5+WStfNSy4aFhzCJERBVattHRXDM5bg0K5xD7Tn/vMY1pjoMc3Z2z9YGYfbg/vJyWq0kkPlvDcMuXuZFs0HIVEBviZJDNAHEpDVaCX6YVpj3Oyq1SAkim3+YOV49OM2cb2NWizJlt9tByFR6ZBU14iq1Wihxoji310MQqLm4TW8JjlLRIu6q41qirbgkHSGiJqsNqrJZxt5TYIZUasaLdQEUfzQ7SAkah4+xhWMqFmNFmqAaBd2NNFjEly3iBF1q9FCtRHFm776GCd2P9UaUb8aLVQb0X3PTShT9KA1on41WqguovfwGIRsO7zTGNGgGi1UF9F35w9DsII3jRENqtFCdRFtj0PI9jcaIxpUo4XqIjoSIdu/4kslg3ANIoPIILp0RJJ1BpEqAlHA9orwJZufXG/woHAxiHy2Wy1fVwt04R9tZsv4z339FydnhEh+MStV5PXw8zgAG1L0mF1+q81IQOSRcW09vrl2CG+d5zqiB1+oB5sVv698gJG/zlejX3XfnnCInJHr6eMgyGo0l5MXgF1PPa57E8ufhGp8cWlXQEOJipcaC6gZ7ccxdE1cIsrcvpo4CIeqRnMVWSKZlx5YrrcJVRTWUWN1gcuKyI+xOlj50dufP2/YIJYjKj2Q8CfZnEO0c0ZCflCYg9DBioANAdG18Ac3SnXLjgghSsexFTLbZYjEkRAK2hHd6p1CkjOT3eXKPRtls4oGkfUg9yYdIvaeXbmFR/IU0USayZTIAuXWdscIyEmIKYA+I8/CHHSIrI3UJHSIwvwS/AJqj8gFHIzCnQPjoHqNgyhvCeIeTsYFLaLYFicuHSI/vwSP2P4VMomVAQZYNF2vkDI0Gv+5O9Iikqe1SojgxwHx0VE0grKy34Aaz9Pu5UB0NHla6wdRMgwQ+yn0KqpsApG141n0hEi/oUbvQndMOYhCJExrvSEadK+DZoimnP+U8yIZRBwirkLxtqi0QcQh+pdbi6wKHAYRhygMF2WaYlrTIPJLRCCjC0Rkh+WLkWK1JiOaM+YfFGzzS36Q/xRGl43IDl7LVI8RhCi4/zMtVfxtoXhRtqiLRORvuWiObFoTEc2/ydLLp/OLRLRvJGWyabpaExFF+AdohXbBRSOyo88y3SuTEQnvKDEVs+GFIrIZN63NmIxoU6H41/DCEfHv+60Fkzqar4QwqirecV8sIptx481jJCISX3WDmhZ5Xy4if8uv1kJx0mdqKKyou/X88hGJ01ogPToGwfqqUH7pvvhlzTm+LxhR4YBNtFIWIH6p/JI/z3/h875kRMK0VsgsY3lEwmot1yUhovbQrYDIZq/Kn3WLyEG38u9fSRvSvr32qiDy18rM1Skij7KyPx2cHw5+msKkEiJhWsvUIaKDt1HjqemiF8J5lGUin8Mm/uNKiITVWqoGiOCgIs5PjAybPYYaScctKAky/3E1RLb8LVCTViTvbJAaIVoJfLffm1dfvSNSb8uDWCoikqe1Zh1N/nYfOPOhXxc+/28ofoC7Y2UQS1VEdiRMa0BkSH4JDXtIxIc+gAFGYrRGpYrXERW7VNjEzbF8NebFF1GxWk9htWaNlRCZfIk7g4OwiuE6D5FDzzzo90SH7EAkTdbqXkJgNcAgofmGy+hJibQ6PBnEa2pGy3YC0j0JkdVoJWo7qf1DmhjEIraEw1pjCtYz+C5eZkNNZb5+j+P3tTZKLZM3wnfeqlaNViKzluKgxIqw9JPx5QaOEQq2h0i0MXjdZ2GIBrULz0Xa/duqVaOFWkbvs6/r3QMane8z/3N3c/3V4EvIMwpNpz5w8INAv89lEMFR6z8HUV86J0TmYyuDiJRBRMogIlX7I/QeN1QREH1pjGhQjRaqi0hdSfSj4FNjRINqtFBdRLNjbYgx0xjRoBotVBeR9X2cbVWetEbUr0YL1UZkNudRpFq3gI6v6FJBIG+odm6IrGkPm/GVmjN1W76zQ2RZrx1v6VgK3tzxDBFVPoagrtgVuEXoWSJKotA6H5ICMGRCZ0TlarRQc0RW/NntkOQDuxUeNOQChHzp67majYp1B+vUFttgR4M4LvX9WX+vrjPXgSZB6ibSRRi8d7WPquaAmYSP9lhsshrNRfnRcjce7sKaeNNdF0PSnP3+GzEyd+bh22736kcrCgFz58+2B+3LPt1ftt5ONZvoJ5Cbg/fAwq35aCcUqAXJPn0FUulLbrkpL/vKlqxlmEO+hYHcfFVIRz3nQiwMiN6RgjKEiIRbu/khF/5CyvTj+ePjOWlSqgdWMuvop6Vw5YEBF/w9HUnWT4kz0TDNpVhsd2J9fHy8fFjPLrzXDBfCMsTBRHmRaERKbrULPKc0WZP44bcSFun+sn5NXp69Z9SI/NSfYUJCk2K1MbNJhA+2lVDtNUlybqNqwrO3R/Th/KcxwhkMUCJis4fkzBccYYUD9koFvryrdWbAs/Xr5Xnf07RGDrqVAXV3HN1iIK58cAq0N3qmPaLJ5GXy0crKPtX2IMLVpsqQ5IfQDvuZvP/2XX2ia0Q9PyVSan+c5XhLrkmiNXR2XGHCy/Oztg2dPSJrstOfwoOeQFiIHGkGRdTJ0bpLzYFyPvukj9ZtbWSv6gLRfk2CnFbks6+7Cgc0tzayV3WDCDncMnvlYRAdCKhHpAZR5tswiAoCr0/8kOSz3LdhEHEEuDUJ59swiAQCiyCJBvWj+S2SoFERF4XIiq/XUXS1i9EEgH7Ac5GoaRzrE9Qv4sQRkbeYJHDxrcggImUQkSLtJ73LBtEREA0r8q0jNd3QX0aRB+XqzjvOyqCK6FEOVTy5lbHnWvrjFrwRsYvuvgDi3TRpZY9yiv8g11M8uq2m09ojJwlUSpDlrrsPDvffY8tR/iGpsBuDVDQP7FPW4ndsb5IiZ8xX5ZBWHklQ8cLn3tBd5qsNRpMIjQdKIGQL3ocTmsuUd9jyXVUgyZ1HiSaRfwDOY5B+UO7DoM4hVYI5UKsRKgS1GvG4BehQCAEa0GrEYk8MUCKu28PGlZVCBqcSCzL28DmAZXAlnx4gq7BPc2hRVi98iju0Hc0Mlv2tbqsdyoiBRR995Tl4iF2awHW0gYpJbyOeg3o8uKoTkbaR1pMxCnT9TxmQkZGRkZGRkZGR0c/W/wsxejN66yFwAAAAAElFTkSuQmCC;" vertex="1" parent="1">
          <mxGeometry x="610" y="320" width="150" height="90" as="geometry" />
        </mxCell>
        <mxCell id="N3M5FBiTOwVPSsPxJG5p-2" value="" style="shape=image;verticalLabelPosition=bottom;verticalAlign=top;imageAspect=0;aspect=fixed;image=data:image/png,iVBORw0KGgoAAAANSUhEUgAAAVQAAAF8CAMAAACns7PcAAABX1BMVEUAAABEQX9EQX9EQX9EQX9EQX/8oCb8iSZEQX9EQX9EQX9EQX9EQX/8iyZEQX/rUCjlRynpTSj8libpTyhEQX/tVCj8nSbqUChEQX9EQX/8myb8kibnSin8jib8jSbuVijoTSjsUyj8oyb8mCbrUijiQylEQX/8oCb8lCb8oybuVyj8iib8oyb8kSbiQyniQynnSij8oyb8oyb8jSb8oCbiQyn8oybiQyn8kCbpTSj8oybiQynoTCjiQyn8oybiQyniQynuVifygCf8oyb8oyb8oyb8kib8kCbwWSf8oybtayjtXCjiQyn8oybrUijvVyj4iib7oSb8kSb8iSb5fCf8iybrUij8kCZEQX/iQyn8bSb8oyb1YifkRSn8oCb8cCb8mSb8dyb7ayb8fCb3ZSftVCjqUCjlSCnvWCj8jyb6aSbzXif8gSb8hSb8lib8iCbnSyj8iyb8nCb8kib8dCYlLFIEAAAAWHRSTlMAwECA8BD+HzCg0OBgVyAf++fn27CH/M9wUPfP9pyHVxCc8PCw8JBg3MA8PBDAoGAvoIBwL4DgwK9wIOCRQEDQUErlkHDQyLZkUPTAsLCmfPn2pnx6kmRK1bxFhwAAD4JJREFUeNrs201LW1EUheE9c5jEEJxEYiCjOHHYQCaZCYJKB4XlafxAQStUkP5/qIaUNSndPZC7T87ivH9gjZ7cG9jXWq1Wq9VqtVqtVqvVarV20tUY6I+sSKM+ML4yuc6xaWEFWmDTuak1wKaBFWj8Z1usHrb1LLwzbms1xbapeUltdxP1/69Bqe1Oov4Ag+72iSm1BIoZnHJ7ZEoNgWIGB9wemlJrFPPfA1ubUCOgmP8loOmf+gP9U7+m/zWKGTxZQ9M/9bsGpba7jPp9g1LbXUb9vkGp7S5bAGUMUj/7ZhodAWUMUj87Mo36QBmD1M/6JtEEKOWf+tnEFKL+QP/Ur+mf+l2DUttdRv3xBheApn/qdw1KbXcZBfoGpba7bAUUMzjBX1tZ7c2ACIO+fjaz2hsDEQZ9/WxslTcHYvz7+tnc6o76A/1Tv6Z/6g/0z21J/9Qf/wxeAZr+qT/e4AWg6Z8CXYNS2112BhQzOAc0/U+BYgZn+EeXVm8DINKgr1/gqLIHxBr09dd/VE39Qf59/fUfVVN/oH/ql/RP/fH+zwBN/9Qf/wy+BDT9U3+gQeqX9H8CFDPYAzT9j4BiBqdwW1qNDYFiBgeApv814g1Sv59VGPUH+ff1139UTf1BBn399R9VU3+Qf/+9o/qjauqP978ENP1Tf6B/6tf0T/3xz+A1NP2fA8UMjgBN/0dAMYNDQNN/H4g3SP2S/idArEFff/1H1dQfZNDXX/9RNfUHGfT1V39UTf3x/q8AQNE/9Uf6p35J/9Qf6p/bgv5XyGphHfzrkPM/Aws1yF8ePf9jIN4g9Uv6nyOzSch7R90fVVF/kEFff/1H1dQfZNDXX/1RNfUH+ff1139UTf3x/i8ATf/XT9+zw47KX366tgo6TW832T1jJz3nL7+lU9v/vqb0fpPbC3bSS/bwe0pfbP87TCk93mT2ip30mrv7mFI6tL3vIH10+5Dtv4j+h9v00YHte8fps/u7fP/x+u/u02fHtu8dpk0/8v3H6/+VUqrB/0Ha9jPXf7z+3+ydu47aQBSGXZmKhsIFVmgoslJClRR5gqRPiggfmPGNi8HcFt5fWUVJJuyO7XNmbGvG5nsEpG/5fnNYDvCCDf6/g78krfu/pb9JgRX+j+AvjLftfxpQ4AwArPB/AIIwILGca7IMSIQAYIf/wn6gboDVXJMVtfrBEv9H8D95QCBt1f4cXrDEf7iDRS36vyRXv4CZ/Es1E7gn5O35v6JXv2DimMsTvOLanv8pvfoFT465uPCaQ1v+LxWqX+A6xjKBtyQt+b8iVr81/t/ZT98AaTv23xgA2OO/CxLCdvynVb89/k9AStaG/+sASwYAFvkvsZ+2ARZzZRak6rfIf2G/6gaYKxMHhOq3yP9PUMQzx/rftP38GYr44ZiID4Vcm/Z/oVr9At8xEQ+KOQUo4obtP0ExnmMgQxAob4B1o/YnUMbQMQ8fymC3Jv1f4KvfLv89KCVs0v8Y/WjKLv+HUEHWnP9rdPVb5r/UfvoG2M8V2KOr3zL/pfbTN0DclP0RvGCZ/z9BoLUBznMyZ2z12+b/DBAcVf3Xt/8IANb5PwYMp0b8j/WqXzB2zAJwJA34f9atfoFjFoCD3er3f4+o/k6/qBDy2v2PEdVv54vqAZKsbv/P2Oq3r6m+Apac5r++/QfA8tUxi88uYInqParcaVa/wDXu+O8dCDQ3wKbO82nOoAzDb//wr+qxzqPqbVX12/yaOs5wDEhOWP/17b8AkrFpG/UPgydAktTm/6ae6gffuL+n/5i4gIJFGP/17Y8YoHBNPaX4zYcxaQPo+7+ro/qnpn/nd0bYAPr+b+qo/pljPJ88wHCoxf+tfvV7nxwLGIywG0Df/1S7+kfmvkPd88WFahjXP6pc6la/a8OX/UWy6m2Alf75dGhxnMoZ+FDNJSgk1bb/YnecqidrgvWfbn9ue5zK+TDV2QArPfsjZn+cyplpbIBUy34ediFOVZM1w/hPt/9aGafvHWsZjJQ3wErD/kNn4lQxWRN1/1PFR1Pud8dyqpKVcWX/C6u/S3Gqlqyhqv/rouq367ZHI1npG2CheD6ddS5OlZI1D6TMK4gVqn9q9zvUPTOFDbBWsT9inYxThWQNuYL/C/IZqteBdyhCsl4DCbGC/dfuxik9WQ9k/9fEM1TXyI/1m03WROY/1f6k23Eq56NP2gAx0f4b63qcUpM1lPlPsz/sfpzK+TwlPLDakw4os17EqZwZfgPEFPvznsSpnPceegOc8efTEetLnNKS9Zmj/d+/rf4examcdy5uA8Ro+4+9ilNSsp4k/qPsP/UsTgvwURtgj7M/6V+cEpKV3VD+x4jqd8389z0NM5giNsAZYT8P+xmn+GTNEP7vq6v/m9Nbhl7VBthVn0/n/Y1TdLKyqOqoelN1hvrUV/VFspZvgG3F+TR/7necYpP1WOH/rrT6x3YentWNX7oBNqX2Xx5xik3WpMz/bUn1u1Z8K6IdBtPiDbArsT9ijzjFJ2vIC/3fFFW/HT+B2CpDr2gDbAvtzx5xSkvWvMj/VJyhPuKUmqxiAyzl59PRI07JySo2wEp6Ps3ZI05x+LINkErtPxr8H2UMY+JKNsBSYv/lEadqyZoI/1/bn/fysz11vr15YJW+sT9ijzhVS1axAZav7Odhbz/b+8XOHasmDIVhGP4nO3oLQnFVQcQWK3Xr0tEOH0gSkxIQK6G0908PSW3Ian6l0ffZ3PPheyA5Dsm6O+6/uf4v4rRNsh6a+39vVH/vzXDKDTfbxv7LHxlx2jJZo7jev/Kq+onTk0179Rlgo/r16YQ4bZWs9cdr9UsUn8RpOw9/Z4D8uP4P4tQhWaszwOZ3/duIOPW5lDGcAdJq/XFCnHol667cfx6q//q/iji3OlkPYf9h/UVn75P5f0KyZqmUZjfyVcRlTHtRnOffUTcuO+yKu/tkv0+IU2cvRXHD75yey3ptAAAAAAAAAAAAAAAAAAAAAAAAAAAAAAAAAADgUiYGb3ONDb5W0szgayGtDK7GkgYGT4Oh9GxwNZM0Mng/qPz5OxspoFNd9RUMDZ7mCuYGR0tJpL//gxosDb7dT/o7W0gi/X09qvRk8O1+0t/XTJW+wbP7SX9nI1VeDV4mkkj/H/buprdNGAzg+GNsSxgQlSYOcJs6jaxS1Td1qfairlrbw94OuxlxX/f9P8GqNZPHQ8BgGy9d/b/tkDT8oPA4WYnK2dz/eEf/aCTQl0dGcf0CdRNMLDb8afjR+vLRJ6JFIjURUY4+RybNYpod9uGec+ron2c1kZpSQisYTshZMVJXHPrlNZMTS0sOQ6XSsEK7QJ04+meJnJoY2pPcaAsqTCrknBgdYpWmEd0CddOVhnTeXiUxbCuSRiWdnVQxObM09oWq5n796M+JnBu1QsXVdidCFvtAVQvUTe9gpDiR8xMuUaUwM1Wq3lDfN/fpR3+emDtgVFvVWJqVck+oe43qDQxXSLNKl6jy4XJFpGH18qhqgaof/StpGOMuUVP1y29Uvjiqmvv1o38qTaMuUWWmDlSTqBfUi0Z14fBAVTGnqAlAbnek44SjHYQPVP3oL6R5lUtUmW/77SfbS6b8/vOSbCnt7EmypVIz9+tHf7ZlKbo9JnFiDJWR0bZd+AR+/hgGq0Tv9DEtKqUqMvkEtdF9kBpj0YzDUHmJXJMxVALjxTXDu4jg4XO0qPt4uiyqmvv1o38l57wyjsYvC9T+ooOA7IRMda+dLIiqFqiqo/EfoRKgiadou21QIWfdXYRei7bEF6o6UFVvpqJyGA9PkpEdKtQIdeb2ll5Rj5pOJxMv/gXoc4oaj6CCLjxtLIy613SD4cjccz1xiQrDqCno4z5Rv3ZNL6Yb6SucoqYIdebDPaGquV/12iUqdYpKHg3qBUK9ehKobFHUqwb1/EmgZouivkOmH2Ap1AR2B1XAkqhvGtTRUqgs/9eobDMpqE+6HaOquR91vAhqUcaA8o+aScmKTO3bpVBfY9O7E6eoPJEyoRHc9+9Rgas9uyDqXu9A/XxqiYqLOQDsCKpqSdSjBvexPbVFxT0x1L2m17O2vQ6oNqhHfdT2vlVAtUB92eB+tr9VA6o5arPllPqgGlCNUd81uFftRjWgmqK+bnDf203nAdUQ9fkHZPqj/dP+eUA1Qu2rfm7/Ug2oZqhqSaWuU0o1oJqhwslLNPqr9g8DKkY1UL1rO90eBlSEaqD6s8WqAdVwi0/wKVV1EFBNt/hYnVJxq4BqusXHavRHnQZUy/9K+aPtdRBQzbf4WI3+na4DqsUWH22uU6jLgGq0xUr1RRuu/raoWPWu7XUeUC23+EuLOw0rKlvUM2y6/zag2qIeYNSz8IaKNWp7X3iXyi3qOUa9Ce+nWqPeINN1eOffHvUbQl0FVHvUNZr7wwd/9qhv8QI1oNqjfkIH6n/4uT8vaeUX9bqL+tYRakTLfFdQfz+8yHJ/qAdogWqNquCSOt4JVLkpobEnVDT3O/4//0xkfGdQ7yNeUC/RAtUZqireIVRJfaDe4APVPWrKdwhVLo6KR//V//8Xf15Q91vV+gn8GeXiqHj0//T4UJNdRF2hud8Vau0W9fHcmQKP/pcTt6rcoTtTyBzm3dAl8YB6i+b+KUYC9DGXqPkIajnzLhnEAypaoE76EQy0xdIlajmCyrj+tfhDxaP/NYxEZx4dhUtUnnZRu/8skKrmZrpiedQzNPdPO1ZYPOUspuJ2qALdV5LITkk1+lKYlJ5XVN9GF6jYQUVzGC4v8L0+bVCjBN+1lEoUKyiN+lWUEkU65MOjrXX2ZBltTTf6rw9hNIlLappF/UoqEokiY6hJNBKlRSpRVD3epJ4pk8YJzei/0t4vz7yyh2pTBWDhUPTPVBaNj/5r/QXYvNwWFZ9LqM0uQVHnqKdq7tfEpXEEXKIKq1/ZBJZHvVULVF1CmhY5Rc2tJKLlUQ9H/srX2QmdgEvU2uoUX8PyqJfaBar9/dMZd4macpuvxxDgAfVMt0C1v06yGCxR8bOZqwrwgXqg5n7XqkrBIWoaW2iwCryg7msWqNbf81NwcIeKny0XbMb+oBy8oJ5rDlTbb/kqIgB3qCQCHM8KNklUVJr3sMxKB0f/NcwqrpNpomXu8HtYyOCz5VFJKRmqoDSLOIxVFcQwkQ+O/iuYXVRRKshQlNIoHt8xgkyuprSK4fG0fpj7Q7/ar2MbAGEohoKZhQ6JKkKZIE1mYP89EB9GcEFxN4OL56DjO6gELUPN62/3k7TXQSXq6X5DzTqr+4madVAJqvSfjaxxjUZY31YDAAAA+J0b8QVok6eDXCcAAAAASUVORK5CYII=" vertex="1" parent="1">
          <mxGeometry x="620" y="20" width="170" height="190" as="geometry" />
        </mxCell>
      </root>
    </mxGraphModel>
  </diagram>
</mxfile>
